G75*
%MOIN*%
%OFA0B0*%
%FSLAX24Y24*%
%IPPOS*%
%LPD*%
%AMOC8*
5,1,8,0,0,1.08239X$1,22.5*
%
%ADD10R,0.0630X0.0710*%
%ADD11OC8,0.0600*%
%ADD12C,0.0560*%
%ADD13R,0.0591X0.0512*%
%ADD14C,0.0300*%
%ADD15C,0.0740*%
%ADD16C,0.0080*%
%ADD17C,0.0396*%
%ADD18R,0.0396X0.0396*%
%ADD19C,0.0160*%
D10*
X015420Y005870D03*
X016539Y005870D03*
X016539Y006745D03*
X015420Y006745D03*
D11*
X018355Y006370D03*
X019355Y006370D03*
X019355Y005370D03*
X018355Y005370D03*
X018355Y004370D03*
X019355Y004370D03*
X019355Y007370D03*
X018355Y007370D03*
X018355Y008370D03*
X019355Y008370D03*
D12*
X003260Y009245D02*
X002700Y009245D01*
X002700Y010245D02*
X003260Y010245D01*
D13*
X004480Y010244D03*
X004480Y009496D03*
X012730Y005494D03*
X013730Y005494D03*
X013730Y004746D03*
X012730Y004746D03*
D14*
X006390Y006960D03*
X006070Y006960D03*
X006070Y007280D03*
X006390Y007280D03*
D15*
X009980Y007370D03*
X010980Y007370D03*
X011980Y007370D03*
D16*
X009355Y005870D02*
X009355Y005745D01*
X010105Y004995D01*
X011230Y004995D01*
X011230Y004915D01*
X011525Y004620D01*
X012604Y004620D01*
X012730Y004746D01*
X012730Y004245D01*
X016480Y004245D01*
X016605Y004120D01*
X017105Y004370D02*
X017105Y005495D01*
X017230Y005620D01*
X017230Y007370D01*
X016730Y007870D01*
X015480Y007870D01*
X015355Y007745D01*
X015355Y007495D01*
X015105Y007870D02*
X015480Y008245D01*
X016980Y008245D01*
X017605Y007620D01*
X017605Y006120D01*
X018355Y005370D01*
X018855Y004870D02*
X019855Y004870D01*
X019855Y008370D01*
X019355Y008370D01*
X017855Y007995D02*
X017355Y008495D01*
X014105Y008495D01*
X013855Y008245D01*
X013355Y008245D02*
X013355Y009870D01*
X013730Y010245D01*
X012980Y010370D02*
X012980Y008245D01*
X012105Y007370D01*
X011980Y007370D01*
X012480Y006745D02*
X010605Y006745D01*
X009980Y007370D01*
X008980Y007370D01*
X008730Y007620D01*
X008605Y008120D02*
X010230Y008120D01*
X010980Y007370D01*
X010980Y008120D02*
X012355Y008120D01*
X012980Y007870D02*
X013355Y008245D01*
X013480Y007870D02*
X015105Y007870D01*
X015980Y007495D02*
X015980Y007305D01*
X016539Y006745D01*
X016855Y007245D02*
X016980Y007245D01*
X016980Y005870D01*
X016539Y005870D01*
X015420Y005870D02*
X015420Y004685D01*
X015355Y004620D01*
X013856Y004620D01*
X013730Y004746D01*
X013730Y005494D02*
X012982Y004746D01*
X012730Y004746D01*
X012730Y005494D02*
X012981Y005745D01*
X013230Y005745D01*
X013480Y005995D01*
X014730Y005995D01*
X014980Y006245D01*
X014980Y006620D01*
X015105Y006745D01*
X015420Y006745D01*
X016605Y007495D02*
X016855Y007245D01*
X017855Y007120D02*
X018105Y006870D01*
X018730Y006870D01*
X018855Y006745D01*
X018855Y005870D01*
X019355Y005370D01*
X018855Y004870D02*
X018355Y004370D01*
X017105Y004370D01*
X013105Y006120D02*
X012855Y006370D01*
X010355Y006370D01*
X010105Y006620D01*
X008105Y006245D02*
X006855Y006245D01*
X004980Y007120D02*
X004730Y007120D01*
X004480Y007370D01*
X004480Y009496D01*
X004229Y009245D01*
X002980Y009245D01*
X002980Y010245D02*
X004479Y010245D01*
X004480Y010244D01*
X007480Y009370D02*
X007605Y009495D01*
X010605Y009495D01*
X012980Y007870D02*
X012980Y007370D01*
X013105Y007245D01*
X012980Y007245D01*
X012480Y006745D01*
X012980Y006245D02*
X013105Y006120D01*
X017855Y007120D02*
X017855Y007995D01*
X007230Y007870D02*
X005480Y007870D01*
X005230Y007620D01*
X004980Y007620D01*
D17*
X006855Y006245D03*
X008105Y006245D03*
X009355Y005870D03*
X010105Y006620D03*
X008730Y007620D03*
X008605Y008120D03*
X007480Y009370D03*
X010605Y009495D03*
X010980Y008120D03*
X012355Y008120D03*
X013480Y007870D03*
X013855Y008245D03*
X013105Y007245D03*
X013105Y006120D03*
X011230Y004995D03*
X015355Y007495D03*
X015980Y007495D03*
X016605Y007495D03*
X013730Y010245D03*
X012980Y010370D03*
X016605Y004120D03*
D18*
X007230Y007870D03*
X004980Y007620D03*
X004980Y007120D03*
D19*
X004480Y009370D02*
X004480Y009496D01*
M02*
