G75*
%MOIN*%
%OFA0B0*%
%FSLAX24Y24*%
%IPPOS*%
%LPD*%
%AMOC8*
5,1,8,0,0,1.08239X$1,22.5*
%
%ADD10R,0.0315X0.0157*%
%ADD11R,0.0157X0.0315*%
%ADD12C,0.0197*%
%ADD13R,0.0591X0.0512*%
%ADD14R,0.0140X0.0460*%
%ADD15R,0.0460X0.0140*%
%ADD16R,0.0512X0.0591*%
%ADD17R,0.0630X0.0710*%
%ADD18R,0.0330X0.0110*%
%ADD19R,0.0110X0.0330*%
%ADD20R,0.0670X0.0670*%
%ADD21R,0.0551X0.0157*%
%ADD22R,0.0591X0.0709*%
%ADD23R,0.0276X0.0591*%
D10*
X010442Y004628D03*
X010442Y004825D03*
X010442Y005022D03*
X010442Y005219D03*
X010442Y005415D03*
X010442Y005612D03*
X012017Y005612D03*
X012017Y005415D03*
X012017Y005219D03*
X012017Y005022D03*
X012017Y004825D03*
X012017Y004628D03*
D11*
X011722Y004343D03*
X011525Y004343D03*
X011328Y004343D03*
X011131Y004343D03*
X010934Y004343D03*
X010737Y004343D03*
X010737Y005898D03*
X010934Y005898D03*
X011131Y005898D03*
X011328Y005898D03*
X011525Y005898D03*
X011722Y005898D03*
D12*
X014828Y006021D02*
X014828Y006021D01*
X014434Y006021D01*
X014434Y006021D01*
X014828Y006021D01*
X014828Y005706D02*
X014828Y005706D01*
X014434Y005706D01*
X014434Y005706D01*
X014828Y005706D01*
X014828Y005391D02*
X014828Y005391D01*
X014434Y005391D01*
X014434Y005391D01*
X014828Y005391D01*
X014828Y005076D02*
X014828Y005076D01*
X014434Y005076D01*
X014434Y005076D01*
X014828Y005076D01*
X015192Y005174D02*
X015192Y005174D01*
X015192Y004780D01*
X015192Y004780D01*
X015192Y005174D01*
X015192Y004976D02*
X015192Y004976D01*
X015192Y005172D02*
X015192Y005172D01*
X015507Y005174D02*
X015507Y005174D01*
X015507Y004780D01*
X015507Y004780D01*
X015507Y005174D01*
X015507Y004976D02*
X015507Y004976D01*
X015507Y005172D02*
X015507Y005172D01*
X015822Y005174D02*
X015822Y005174D01*
X015822Y004780D01*
X015822Y004780D01*
X015822Y005174D01*
X015822Y004976D02*
X015822Y004976D01*
X015822Y005172D02*
X015822Y005172D01*
X016137Y004780D02*
X016137Y004780D01*
X016137Y005174D01*
X016137Y005174D01*
X016137Y004780D01*
X016137Y004976D02*
X016137Y004976D01*
X016137Y005172D02*
X016137Y005172D01*
X016452Y004780D02*
X016452Y004780D01*
X016452Y005174D01*
X016452Y005174D01*
X016452Y004780D01*
X016452Y004976D02*
X016452Y004976D01*
X016452Y005172D02*
X016452Y005172D01*
X016767Y004780D02*
X016767Y004780D01*
X016767Y005174D01*
X016767Y005174D01*
X016767Y004780D01*
X016767Y004976D02*
X016767Y004976D01*
X016767Y005172D02*
X016767Y005172D01*
X017525Y005076D02*
X017525Y005076D01*
X017131Y005076D01*
X017131Y005076D01*
X017525Y005076D01*
X017525Y005391D02*
X017525Y005391D01*
X017131Y005391D01*
X017131Y005391D01*
X017525Y005391D01*
X017525Y005706D02*
X017525Y005706D01*
X017131Y005706D01*
X017131Y005706D01*
X017525Y005706D01*
X017525Y006021D02*
X017525Y006021D01*
X017131Y006021D01*
X017131Y006021D01*
X017525Y006021D01*
X017525Y006336D02*
X017525Y006336D01*
X017131Y006336D01*
X017131Y006336D01*
X017525Y006336D01*
X017525Y006651D02*
X017525Y006651D01*
X017131Y006651D01*
X017131Y006651D01*
X017525Y006651D01*
X017525Y006966D02*
X017525Y006966D01*
X017131Y006966D01*
X017131Y006966D01*
X017525Y006966D01*
X017525Y007281D02*
X017525Y007281D01*
X017131Y007281D01*
X017131Y007281D01*
X017525Y007281D01*
X017525Y007596D02*
X017525Y007596D01*
X017131Y007596D01*
X017131Y007596D01*
X017525Y007596D01*
X017525Y007910D02*
X017525Y007910D01*
X017131Y007910D01*
X017131Y007910D01*
X017525Y007910D01*
X017525Y008225D02*
X017525Y008225D01*
X017131Y008225D01*
X017131Y008225D01*
X017525Y008225D01*
X017525Y008540D02*
X017525Y008540D01*
X017131Y008540D01*
X017131Y008540D01*
X017525Y008540D01*
X014828Y008540D02*
X014828Y008540D01*
X014434Y008540D01*
X014434Y008540D01*
X014828Y008540D01*
X014828Y008855D02*
X014828Y008855D01*
X014434Y008855D01*
X014434Y008855D01*
X014828Y008855D01*
X014828Y009170D02*
X014828Y009170D01*
X014434Y009170D01*
X014434Y009170D01*
X014828Y009170D01*
X014828Y009485D02*
X014828Y009485D01*
X014434Y009485D01*
X014434Y009485D01*
X014828Y009485D01*
X014828Y009800D02*
X014828Y009800D01*
X014434Y009800D01*
X014434Y009800D01*
X014828Y009800D01*
X014828Y010115D02*
X014828Y010115D01*
X014434Y010115D01*
X014434Y010115D01*
X014828Y010115D01*
X014828Y010430D02*
X014828Y010430D01*
X014434Y010430D01*
X014434Y010430D01*
X014828Y010430D01*
X014828Y008225D02*
X014828Y008225D01*
X014434Y008225D01*
X014434Y008225D01*
X014828Y008225D01*
X014828Y007910D02*
X014828Y007910D01*
X014434Y007910D01*
X014434Y007910D01*
X014828Y007910D01*
X014828Y007596D02*
X014828Y007596D01*
X014434Y007596D01*
X014434Y007596D01*
X014828Y007596D01*
X014828Y007281D02*
X014828Y007281D01*
X014434Y007281D01*
X014434Y007281D01*
X014828Y007281D01*
X014828Y006966D02*
X014828Y006966D01*
X014434Y006966D01*
X014434Y006966D01*
X014828Y006966D01*
X014828Y006651D02*
X014828Y006651D01*
X014434Y006651D01*
X014434Y006651D01*
X014828Y006651D01*
X014828Y006336D02*
X014828Y006336D01*
X014434Y006336D01*
X014434Y006336D01*
X014828Y006336D01*
D13*
X013730Y006496D03*
X013730Y007244D03*
X013730Y008871D03*
X013730Y009619D03*
X007980Y007744D03*
X007980Y006996D03*
X006730Y008496D03*
X005730Y008496D03*
X005730Y009244D03*
X006730Y009244D03*
X004230Y007244D03*
X004230Y006496D03*
X008605Y005244D03*
X009605Y005244D03*
X009605Y004496D03*
X008605Y004496D03*
X012730Y004746D03*
X013730Y004746D03*
X013730Y005494D03*
X012730Y005494D03*
D14*
X007990Y005280D03*
X007730Y005280D03*
X007470Y005280D03*
X007470Y004460D03*
X007990Y004460D03*
D15*
X008070Y008610D03*
X008070Y009130D03*
X008890Y009130D03*
X008890Y008870D03*
X008890Y008610D03*
X011070Y009860D03*
X011070Y010120D03*
X011070Y010380D03*
X011890Y010380D03*
X011890Y009860D03*
D16*
X011856Y008870D03*
X012604Y008870D03*
X010854Y008870D03*
X010106Y008870D03*
X009854Y010120D03*
X009106Y010120D03*
X008104Y010120D03*
X007356Y010120D03*
X004854Y008370D03*
X004106Y008370D03*
X004356Y005620D03*
X005104Y005620D03*
X006106Y005620D03*
X006854Y005620D03*
D17*
X003670Y004620D03*
X004789Y004620D03*
X005670Y004620D03*
X006789Y004620D03*
D18*
X006810Y006820D03*
X006810Y007020D03*
X006810Y007220D03*
X006810Y007420D03*
X005650Y007420D03*
X005650Y007220D03*
X005650Y007020D03*
X005650Y006820D03*
D19*
X005930Y006540D03*
X006130Y006540D03*
X006330Y006540D03*
X006530Y006540D03*
X006530Y007700D03*
X006330Y007700D03*
X006130Y007700D03*
X005930Y007700D03*
D20*
X006230Y007120D03*
D21*
X003543Y007126D03*
X003543Y006870D03*
X003543Y006614D03*
X003543Y006358D03*
X003543Y007382D03*
D22*
X002480Y008321D03*
X002480Y005420D03*
D23*
X002480Y006870D03*
M02*
