G75*
%MOIN*%
%OFA0B0*%
%FSLAX24Y24*%
%IPPOS*%
%LPD*%
%AMOC8*
5,1,8,0,0,1.08239X$1,22.5*
%
%ADD10C,0.0030*%
%ADD11C,0.0060*%
%ADD12C,0.0040*%
%ADD13C,0.0050*%
%ADD14R,0.0079X0.0079*%
%ADD15R,0.0059X0.0098*%
%ADD16C,0.0240*%
%ADD17C,0.0100*%
%ADD18C,0.0080*%
D10*
X003870Y004912D02*
X003870Y005159D01*
X003747Y005035D02*
X003994Y005035D01*
X004378Y004850D02*
X004564Y004850D01*
X004625Y004912D01*
X004625Y005159D01*
X004564Y005220D01*
X004378Y005220D01*
X004378Y004850D01*
X004747Y004912D02*
X004747Y005159D01*
X004808Y005220D01*
X004932Y005220D01*
X004994Y005159D01*
X004994Y004912D02*
X004932Y004850D01*
X004808Y004850D01*
X004747Y004912D01*
X005247Y005035D02*
X005494Y005035D01*
X003362Y005435D02*
X003115Y005435D01*
X002967Y005620D02*
X002720Y005620D01*
X002599Y005620D02*
X002352Y005620D01*
X002475Y005620D02*
X002475Y005250D01*
X002230Y005250D02*
X002230Y005497D01*
X002107Y005620D01*
X001983Y005497D01*
X001983Y005250D01*
X001862Y005312D02*
X001800Y005250D01*
X001615Y005250D01*
X001615Y005620D01*
X001800Y005620D01*
X001862Y005559D01*
X001862Y005497D01*
X001800Y005435D01*
X001615Y005435D01*
X001800Y005435D02*
X001862Y005374D01*
X001862Y005312D01*
X001983Y005435D02*
X002230Y005435D01*
X002843Y005250D02*
X002843Y005620D01*
X001362Y005435D02*
X001115Y005435D01*
X001238Y005312D02*
X001238Y005559D01*
X007510Y010412D02*
X007572Y010350D01*
X007695Y010350D01*
X007757Y010412D01*
X007878Y010350D02*
X007878Y010720D01*
X007757Y010659D02*
X007695Y010720D01*
X007572Y010720D01*
X007510Y010659D01*
X007510Y010412D01*
X007878Y010535D02*
X008125Y010535D01*
X008247Y010412D02*
X008308Y010350D01*
X008432Y010350D01*
X008494Y010412D01*
X008494Y010535D01*
X008370Y010535D01*
X008247Y010412D02*
X008247Y010659D01*
X008308Y010720D01*
X008432Y010720D01*
X008494Y010659D01*
X008125Y010720D02*
X008125Y010350D01*
X010247Y009220D02*
X010494Y009220D01*
X010615Y009220D02*
X010800Y009220D01*
X010862Y009159D01*
X010862Y008912D01*
X010800Y008850D01*
X010615Y008850D01*
X010615Y009220D01*
X010370Y009220D02*
X010370Y008850D01*
X010309Y008220D02*
X010063Y008220D01*
X010063Y007850D01*
X010309Y007850D01*
X010431Y007850D02*
X010431Y008220D01*
X010678Y007850D01*
X010678Y008220D01*
X010799Y008097D02*
X010923Y008220D01*
X010923Y007850D01*
X011046Y007850D02*
X010799Y007850D01*
X010186Y008035D02*
X010063Y008035D01*
X010063Y007220D02*
X010063Y006850D01*
X010309Y006850D01*
X010431Y006850D02*
X010431Y007220D01*
X010678Y006850D01*
X010678Y007220D01*
X010799Y007159D02*
X010861Y007220D01*
X010984Y007220D01*
X011046Y007159D01*
X011046Y007097D01*
X010799Y006850D01*
X011046Y006850D01*
X010309Y007220D02*
X010063Y007220D01*
X010063Y007035D02*
X010186Y007035D01*
X010308Y006220D02*
X010247Y006159D01*
X010247Y005912D01*
X010308Y005850D01*
X010432Y005850D01*
X010494Y005912D01*
X010615Y005850D02*
X010862Y005850D01*
X010738Y006035D02*
X010615Y006035D01*
X010494Y006159D02*
X010432Y006220D01*
X010308Y006220D01*
X010615Y006220D02*
X010615Y005850D01*
X010615Y006220D02*
X010862Y006220D01*
X011773Y007850D02*
X011773Y008220D01*
X011959Y008220D01*
X012020Y008159D01*
X012020Y008035D01*
X011959Y007974D01*
X011773Y007974D01*
X012142Y007912D02*
X012203Y007850D01*
X012327Y007850D01*
X012389Y007912D01*
X012389Y008035D01*
X012265Y008035D01*
X012142Y007912D02*
X012142Y008159D01*
X012203Y008220D01*
X012327Y008220D01*
X012389Y008159D01*
X012510Y008159D02*
X012510Y007912D01*
X012572Y007850D01*
X012695Y007850D01*
X012757Y007912D01*
X012757Y008159D01*
X012695Y008220D01*
X012572Y008220D01*
X012510Y008159D01*
X012878Y008159D02*
X012878Y007912D01*
X012940Y007850D01*
X013064Y007850D01*
X013125Y007912D01*
X013125Y008159D01*
X013064Y008220D01*
X012940Y008220D01*
X012878Y008159D01*
X013247Y008220D02*
X013432Y008220D01*
X013494Y008159D01*
X013494Y007912D01*
X013432Y007850D01*
X013247Y007850D01*
X013247Y008220D01*
X012475Y011250D02*
X012475Y011620D01*
X012352Y011620D02*
X012599Y011620D01*
X012230Y011620D02*
X012230Y011312D01*
X012168Y011250D01*
X012045Y011250D01*
X011983Y011312D01*
X011983Y011620D01*
X011862Y011559D02*
X011800Y011620D01*
X011677Y011620D01*
X011615Y011559D01*
X011615Y011312D01*
X011677Y011250D01*
X011800Y011250D01*
X011862Y011312D01*
X011862Y011559D01*
X005209Y013118D02*
X004895Y013432D01*
X004895Y013275D02*
X005209Y013275D01*
X005209Y013432D02*
X004895Y013118D01*
X005052Y013118D02*
X005052Y013432D01*
X002344Y013620D02*
X002097Y013620D01*
X001976Y013620D02*
X001729Y013620D01*
X001729Y013250D01*
X001976Y013250D01*
X001852Y013435D02*
X001729Y013435D01*
X001607Y013374D02*
X001607Y013312D01*
X001546Y013250D01*
X001422Y013250D01*
X001361Y013312D01*
X001238Y013250D02*
X001115Y013250D01*
X001177Y013250D02*
X001177Y013620D01*
X001238Y013620D02*
X001115Y013620D01*
X001361Y013559D02*
X001361Y013497D01*
X001422Y013435D01*
X001546Y013435D01*
X001607Y013374D01*
X001607Y013559D02*
X001546Y013620D01*
X001422Y013620D01*
X001361Y013559D01*
X002221Y013620D02*
X002221Y013250D01*
X002099Y017750D02*
X001975Y017874D01*
X002037Y017874D02*
X001852Y017874D01*
X001852Y017750D02*
X001852Y018120D01*
X002037Y018120D01*
X002099Y018059D01*
X002099Y017935D01*
X002037Y017874D01*
X001730Y017750D02*
X001730Y018120D01*
X001607Y017997D01*
X001483Y018120D01*
X001483Y017750D01*
X001238Y017750D02*
X001238Y018120D01*
X001115Y018120D02*
X001362Y018120D01*
X005615Y018120D02*
X005738Y018120D01*
X005677Y018120D02*
X005677Y017750D01*
X005738Y017750D02*
X005615Y017750D01*
X005861Y017812D02*
X005922Y017750D01*
X006046Y017750D01*
X006107Y017812D01*
X006107Y017874D01*
X006046Y017935D01*
X005922Y017935D01*
X005861Y017997D01*
X005861Y018059D01*
X005922Y018120D01*
X006046Y018120D01*
X006107Y018059D01*
X006229Y018120D02*
X006229Y017750D01*
X006476Y017750D01*
X006352Y017935D02*
X006229Y017935D01*
X006229Y018120D02*
X006476Y018120D01*
X006597Y018120D02*
X006844Y018120D01*
X006721Y018120D02*
X006721Y017750D01*
X007615Y017812D02*
X007677Y017750D01*
X007800Y017750D01*
X007862Y017812D01*
X007862Y018059D01*
X007800Y018120D01*
X007677Y018120D01*
X007615Y018059D01*
X007615Y017812D01*
X007983Y017812D02*
X008045Y017750D01*
X008168Y017750D01*
X008230Y017812D01*
X008230Y018120D01*
X008352Y018120D02*
X008599Y018120D01*
X008475Y018120D02*
X008475Y017750D01*
X007983Y017812D02*
X007983Y018120D01*
X009088Y018120D02*
X009088Y017750D01*
X009088Y017874D02*
X009273Y017874D01*
X009335Y017935D01*
X009335Y018059D01*
X009273Y018120D01*
X009088Y018120D01*
X009212Y017874D02*
X009335Y017750D01*
X011247Y017812D02*
X011308Y017750D01*
X011432Y017750D01*
X011494Y017812D01*
X011615Y017750D02*
X011862Y017750D01*
X011615Y017750D02*
X011615Y018120D01*
X011494Y018059D02*
X011432Y018120D01*
X011308Y018120D01*
X011247Y018059D01*
X011247Y017812D01*
X013747Y017812D02*
X013808Y017750D01*
X013932Y017750D01*
X013994Y017812D01*
X013994Y018059D01*
X013932Y018120D01*
X013808Y018120D01*
X013747Y018059D01*
X013747Y017812D01*
X014115Y017750D02*
X014115Y018120D01*
X014362Y017750D01*
X014362Y018120D01*
X015063Y018059D02*
X015063Y017812D01*
X015124Y017750D01*
X015248Y017750D01*
X015309Y017812D01*
X015309Y018059D01*
X015248Y018120D01*
X015124Y018120D01*
X015063Y018059D01*
X015431Y018120D02*
X015678Y018120D01*
X015799Y018120D02*
X016046Y018120D01*
X015923Y017935D02*
X015799Y017935D01*
X015799Y017750D02*
X015799Y018120D01*
X015554Y017935D02*
X015431Y017935D01*
X015431Y017750D02*
X015431Y018120D01*
X017063Y017620D02*
X017063Y017250D01*
X017248Y017250D01*
X017309Y017312D01*
X017309Y017374D01*
X017248Y017435D01*
X017309Y017497D01*
X017309Y017559D01*
X017248Y017620D01*
X017063Y017620D01*
X017063Y017435D02*
X017248Y017435D01*
X017431Y017250D02*
X017678Y017250D01*
X017799Y017250D02*
X018046Y017250D01*
X017985Y017120D02*
X017985Y016812D01*
X017923Y016750D01*
X017799Y016750D01*
X017738Y016812D01*
X017738Y017120D01*
X017616Y017120D02*
X017616Y016750D01*
X017369Y016750D02*
X017369Y017120D01*
X017493Y016997D01*
X017616Y017120D01*
X017799Y017250D02*
X017799Y017620D01*
X018046Y017620D01*
X017923Y017435D02*
X017799Y017435D01*
X017862Y017750D02*
X017615Y017750D01*
X017615Y018120D01*
X017494Y018059D02*
X017432Y018120D01*
X017308Y018120D01*
X017247Y018059D01*
X017247Y017812D01*
X017308Y017750D01*
X017432Y017750D01*
X017494Y017812D01*
X017431Y017620D02*
X017431Y017250D01*
X017247Y017120D02*
X017124Y017120D01*
X017186Y017120D02*
X017186Y016750D01*
X017247Y016750D02*
X017124Y016750D01*
X018887Y017250D02*
X019011Y017250D01*
X018949Y017250D02*
X018949Y017620D01*
X018887Y017620D02*
X019011Y017620D01*
X019133Y017620D02*
X019256Y017497D01*
X019380Y017620D01*
X019380Y017250D01*
X019501Y017312D02*
X019563Y017250D01*
X019686Y017250D01*
X019748Y017312D01*
X019748Y017620D01*
X019501Y017620D02*
X019501Y017312D01*
X019133Y017250D02*
X019133Y017620D01*
X020238Y017620D02*
X020238Y017250D01*
X020238Y017374D02*
X020423Y017374D01*
X020485Y017435D01*
X020485Y017559D01*
X020423Y017620D01*
X020238Y017620D01*
X020606Y017620D02*
X020606Y017250D01*
X020730Y017374D01*
X020853Y017250D01*
X020853Y017620D01*
X020974Y017620D02*
X021160Y017620D01*
X021221Y017559D01*
X021221Y017435D01*
X021160Y017374D01*
X020974Y017374D01*
X021098Y017374D02*
X021221Y017250D01*
X020974Y017250D02*
X020974Y017620D01*
X021571Y017750D02*
X021695Y017750D01*
X021633Y017750D02*
X021633Y018120D01*
X021571Y018120D02*
X021695Y018120D01*
X021817Y018120D02*
X021940Y017997D01*
X022064Y018120D01*
X022064Y017750D01*
X022185Y017812D02*
X022247Y017750D01*
X022370Y017750D01*
X022432Y017812D01*
X022432Y018120D01*
X022185Y018120D02*
X022185Y017812D01*
X021817Y017750D02*
X021817Y018120D01*
X022922Y018120D02*
X022922Y017750D01*
X022922Y017874D02*
X023107Y017874D01*
X023169Y017935D01*
X023169Y018059D01*
X023107Y018120D01*
X022922Y018120D01*
X023045Y017874D02*
X023169Y017750D01*
X023290Y017750D02*
X023537Y017750D01*
X023414Y017750D02*
X023414Y018120D01*
X023290Y017997D01*
X024887Y018120D02*
X025011Y018120D01*
X024949Y018120D02*
X024949Y017750D01*
X024887Y017750D02*
X025011Y017750D01*
X025133Y017750D02*
X025133Y018120D01*
X025256Y017997D01*
X025380Y018120D01*
X025380Y017750D01*
X025501Y017812D02*
X025563Y017750D01*
X025686Y017750D01*
X025748Y017812D01*
X025748Y018120D01*
X025869Y018059D02*
X025931Y018120D01*
X026055Y018120D01*
X026116Y018059D01*
X026116Y017997D01*
X025869Y017750D01*
X026116Y017750D01*
X026238Y017750D02*
X026423Y017750D01*
X026485Y017812D01*
X026485Y017874D01*
X026423Y017935D01*
X026238Y017935D01*
X026423Y017935D02*
X026485Y017997D01*
X026485Y018059D01*
X026423Y018120D01*
X026238Y018120D01*
X026238Y017750D01*
X026606Y017750D02*
X026853Y017750D01*
X026974Y017750D02*
X027221Y017750D01*
X027098Y017935D02*
X026974Y017935D01*
X026974Y018120D02*
X026974Y017750D01*
X026606Y017750D02*
X026606Y018120D01*
X026974Y018120D02*
X027221Y018120D01*
X025501Y018120D02*
X025501Y017812D01*
X025563Y014120D02*
X025748Y014120D01*
X025809Y014059D01*
X025809Y013935D01*
X025748Y013874D01*
X025563Y013874D01*
X025563Y013750D02*
X025563Y014120D01*
X025931Y014059D02*
X025993Y014120D01*
X026116Y014120D01*
X026178Y014059D01*
X026178Y013997D01*
X025931Y013750D01*
X026178Y013750D01*
X026299Y013750D02*
X026546Y013997D01*
X026546Y014059D01*
X026484Y014120D01*
X026361Y014120D01*
X026299Y014059D01*
X026299Y013750D02*
X026546Y013750D01*
X032563Y012620D02*
X032563Y012250D01*
X032563Y012374D02*
X032748Y012374D01*
X032809Y012435D01*
X032809Y012559D01*
X032748Y012620D01*
X032563Y012620D01*
X032931Y012559D02*
X032931Y012312D01*
X033178Y012559D01*
X033178Y012312D01*
X033116Y012250D01*
X032993Y012250D01*
X032931Y012312D01*
X032931Y012559D02*
X032993Y012620D01*
X033116Y012620D01*
X033178Y012559D01*
X033299Y012559D02*
X033361Y012620D01*
X033484Y012620D01*
X033546Y012559D01*
X033299Y012312D01*
X033361Y012250D01*
X033484Y012250D01*
X033546Y012312D01*
X033546Y012559D01*
X033299Y012559D02*
X033299Y012312D01*
X033423Y011620D02*
X033423Y011250D01*
X033546Y011250D02*
X033299Y011250D01*
X033178Y011312D02*
X033116Y011250D01*
X032993Y011250D01*
X032931Y011312D01*
X033178Y011559D01*
X033178Y011312D01*
X033299Y011497D02*
X033423Y011620D01*
X033178Y011559D02*
X033116Y011620D01*
X032993Y011620D01*
X032931Y011559D01*
X032931Y011312D01*
X032809Y011435D02*
X032748Y011374D01*
X032563Y011374D01*
X032563Y011250D02*
X032563Y011620D01*
X032748Y011620D01*
X032809Y011559D01*
X032809Y011435D01*
X032748Y010620D02*
X032563Y010620D01*
X032563Y010250D01*
X032563Y010374D02*
X032748Y010374D01*
X032809Y010435D01*
X032809Y010559D01*
X032748Y010620D01*
X032931Y010559D02*
X032993Y010620D01*
X033116Y010620D01*
X033178Y010559D01*
X032931Y010312D01*
X032993Y010250D01*
X033116Y010250D01*
X033178Y010312D01*
X033178Y010559D01*
X033299Y010559D02*
X033361Y010620D01*
X033484Y010620D01*
X033546Y010559D01*
X033546Y010497D01*
X033299Y010250D01*
X033546Y010250D01*
X032931Y010312D02*
X032931Y010559D01*
X033808Y008620D02*
X033747Y008559D01*
X033747Y008312D01*
X033808Y008250D01*
X033932Y008250D01*
X033994Y008312D01*
X033994Y008559D01*
X033932Y008620D01*
X033808Y008620D01*
X034115Y008620D02*
X034362Y008250D01*
X034362Y008620D01*
X034115Y008620D02*
X034115Y008250D01*
X027546Y006620D02*
X027299Y006620D01*
X027299Y006435D01*
X027423Y006497D01*
X027484Y006497D01*
X027546Y006435D01*
X027546Y006312D01*
X027484Y006250D01*
X027361Y006250D01*
X027299Y006312D01*
X027178Y006435D02*
X027116Y006374D01*
X026931Y006374D01*
X026931Y006250D02*
X026931Y006620D01*
X027116Y006620D01*
X027178Y006559D01*
X027178Y006435D01*
X026809Y006620D02*
X026563Y006620D01*
X026686Y006620D02*
X026686Y006250D01*
X024362Y006059D02*
X024115Y005812D01*
X024177Y005750D01*
X024300Y005750D01*
X024362Y005812D01*
X024362Y006059D01*
X024300Y006120D01*
X024177Y006120D01*
X024115Y006059D01*
X024115Y005812D01*
X023994Y005750D02*
X023747Y005750D01*
X023870Y005750D02*
X023870Y006120D01*
X023747Y005997D01*
X023993Y006750D02*
X024116Y006750D01*
X024178Y006812D01*
X024178Y007059D01*
X024116Y007120D01*
X023993Y007120D01*
X023931Y007059D01*
X023931Y006997D01*
X023993Y006935D01*
X024178Y006935D01*
X023993Y006750D02*
X023931Y006812D01*
X023458Y005120D02*
X023272Y005120D01*
X023272Y004750D01*
X023151Y004750D02*
X022904Y004750D01*
X022904Y005120D01*
X023151Y005120D01*
X023028Y004935D02*
X022904Y004935D01*
X022783Y004935D02*
X022659Y004935D01*
X022783Y004935D02*
X022783Y004812D01*
X022721Y004750D01*
X022598Y004750D01*
X022536Y004812D01*
X022536Y005059D01*
X022598Y005120D01*
X022721Y005120D01*
X022783Y005059D01*
X022414Y005059D02*
X022353Y005120D01*
X022229Y005120D01*
X022167Y005059D01*
X022167Y004812D01*
X022229Y004750D01*
X022353Y004750D01*
X022414Y004812D01*
X022414Y004935D01*
X022291Y004935D01*
X022046Y004812D02*
X021984Y004750D01*
X021861Y004750D01*
X021799Y004812D01*
X021799Y005120D01*
X021678Y005059D02*
X021678Y004997D01*
X021616Y004935D01*
X021431Y004935D01*
X021431Y004750D02*
X021616Y004750D01*
X021678Y004812D01*
X021678Y004874D01*
X021616Y004935D01*
X021678Y005059D02*
X021616Y005120D01*
X021431Y005120D01*
X021431Y004750D01*
X021309Y004750D02*
X021063Y004750D01*
X021063Y005120D01*
X021309Y005120D01*
X021186Y004935D02*
X021063Y004935D01*
X020941Y004812D02*
X020941Y005059D01*
X020879Y005120D01*
X020694Y005120D01*
X020694Y004750D01*
X020879Y004750D01*
X020941Y004812D01*
X020204Y004812D02*
X020143Y004750D01*
X020019Y004750D01*
X019958Y004812D01*
X019958Y005059D01*
X020019Y005120D01*
X020143Y005120D01*
X020204Y005059D01*
X019836Y005059D02*
X019774Y005120D01*
X019651Y005120D01*
X019589Y005059D01*
X019589Y004812D01*
X019651Y004750D01*
X019774Y004750D01*
X019836Y004812D01*
X019178Y005750D02*
X018931Y005750D01*
X019178Y005997D01*
X019178Y006059D01*
X019116Y006120D01*
X018993Y006120D01*
X018931Y006059D01*
X018931Y006750D02*
X019178Y006750D01*
X019054Y006750D02*
X019054Y007120D01*
X018931Y006997D01*
X022046Y005120D02*
X022046Y004812D01*
X023272Y004874D02*
X023458Y004874D01*
X023519Y004935D01*
X023519Y005059D01*
X023458Y005120D01*
X023396Y004874D02*
X023519Y004750D01*
X033563Y013812D02*
X033624Y013750D01*
X033748Y013750D01*
X033809Y013812D01*
X033809Y014059D01*
X033748Y014120D01*
X033624Y014120D01*
X033563Y014059D01*
X033563Y013812D01*
X033931Y013750D02*
X033931Y014120D01*
X034178Y014120D01*
X034299Y014120D02*
X034546Y014120D01*
X034423Y013935D02*
X034299Y013935D01*
X034299Y013750D02*
X034299Y014120D01*
X034054Y013935D02*
X033931Y013935D01*
D11*
X028600Y015985D02*
X028350Y015735D01*
X027850Y015735D01*
X027600Y015985D01*
X027350Y015735D01*
X026850Y015735D01*
X026600Y015985D01*
X026350Y015735D01*
X025850Y015735D01*
X025600Y015985D01*
X025350Y015735D01*
X024850Y015735D01*
X024600Y015985D01*
X024350Y015735D01*
X023850Y015735D01*
X023600Y015985D01*
X023600Y017485D01*
X023850Y017735D01*
X024350Y017735D01*
X024600Y017485D01*
X024850Y017735D01*
X025350Y017735D01*
X025600Y017485D01*
X025850Y017735D01*
X026350Y017735D01*
X026600Y017485D01*
X026850Y017735D01*
X027350Y017735D01*
X027600Y017485D01*
X027850Y017735D01*
X028350Y017735D01*
X028600Y017485D01*
X028600Y015985D01*
X020600Y016135D02*
X020600Y015335D01*
X020500Y015235D01*
X019700Y015235D01*
X019600Y015335D01*
X019600Y016135D01*
X019700Y016235D01*
X019600Y016335D01*
X019600Y017135D01*
X019700Y017235D01*
X020500Y017235D01*
X020600Y017135D01*
X020600Y016335D01*
X020500Y016235D01*
X020600Y016135D01*
X013100Y011135D02*
X013000Y011235D01*
X012200Y011235D01*
X012100Y011135D01*
X012000Y011235D01*
X011200Y011235D01*
X011100Y011135D01*
X011100Y010335D01*
X011200Y010235D01*
X012000Y010235D01*
X012100Y010335D01*
X012200Y010235D01*
X013000Y010235D01*
X013100Y010335D01*
X013100Y011135D01*
X007050Y012565D02*
X006950Y012565D01*
X006950Y012715D01*
X007050Y012715D02*
X007050Y012565D01*
X006820Y012255D02*
X006820Y012015D01*
X006580Y012015D01*
X005620Y012015D02*
X005380Y012015D01*
X005380Y012255D01*
X005380Y013215D02*
X005380Y013455D01*
X005620Y013455D01*
X006580Y013455D02*
X006820Y013455D01*
X006820Y013215D01*
X003100Y013085D02*
X003100Y012385D01*
X002950Y012235D01*
X003100Y012085D01*
X003100Y011385D01*
X002950Y011235D01*
X003100Y011085D01*
X003100Y010385D01*
X002950Y010235D01*
X003100Y010085D01*
X003100Y009385D01*
X002950Y009235D01*
X001250Y009235D01*
X001100Y009385D01*
X001100Y010085D01*
X001250Y010235D01*
X001100Y010385D01*
X001100Y011085D01*
X001250Y011235D01*
X001100Y011385D01*
X001100Y012085D01*
X001250Y012235D01*
X001100Y012385D01*
X001100Y013085D01*
X001250Y013235D01*
X002950Y013235D01*
X003100Y013085D01*
X002950Y013735D02*
X003100Y013885D01*
X003100Y014585D01*
X002950Y014735D01*
X003100Y014885D01*
X003100Y015585D01*
X002950Y015735D01*
X003100Y015885D01*
X003100Y016585D01*
X002950Y016735D01*
X003100Y016885D01*
X003100Y017585D01*
X002950Y017735D01*
X001250Y017735D01*
X001100Y017585D01*
X001100Y016885D01*
X001250Y016735D01*
X001100Y016585D01*
X001100Y015885D01*
X001250Y015735D01*
X001100Y015585D01*
X001100Y014885D01*
X001250Y014735D01*
X001100Y014585D01*
X001100Y013885D01*
X001250Y013735D01*
X002950Y013735D01*
X002600Y008635D02*
X002300Y008635D01*
X001000Y008635D01*
X000900Y008635D01*
X000900Y008485D01*
X001000Y008485D01*
X001100Y008485D01*
X001100Y007985D01*
X001000Y007985D01*
X001000Y007835D01*
X002250Y007835D01*
X002150Y007735D01*
X002250Y007635D01*
X001000Y007635D01*
X001000Y007835D01*
X001000Y007985D02*
X000900Y007985D01*
X000900Y007485D01*
X001000Y007485D01*
X001000Y007635D01*
X001000Y007485D02*
X001100Y007485D01*
X001100Y006985D01*
X001000Y006985D01*
X001000Y006835D01*
X000900Y006835D01*
X000900Y006985D01*
X001000Y006985D01*
X001000Y006835D02*
X002300Y006835D01*
X002600Y006835D01*
X002600Y007135D01*
X002650Y007135D01*
X002650Y007335D01*
X002600Y007335D01*
X002600Y007635D01*
X002550Y007635D01*
X002550Y007835D01*
X002600Y007835D01*
X002600Y008135D01*
X002650Y008135D01*
X002650Y008335D01*
X002600Y008335D01*
X002600Y008635D01*
X002300Y008635D02*
X002300Y007885D01*
X002250Y007835D01*
X002250Y007635D02*
X002300Y007585D01*
X002300Y006835D01*
X000900Y006835D02*
X000700Y006835D01*
X000700Y007635D01*
X000750Y007635D01*
X000750Y007835D01*
X000700Y007835D01*
X000700Y008635D01*
X000900Y008635D01*
X001000Y008635D02*
X001000Y008485D01*
X006853Y005644D02*
X007347Y005644D01*
X007100Y005397D02*
X007100Y005891D01*
X008262Y005735D02*
X008755Y005735D01*
X027600Y005335D02*
X027700Y005235D01*
X028500Y005235D01*
X028600Y005335D01*
X028600Y006135D01*
X028500Y006235D01*
X028600Y006335D01*
X028600Y007135D01*
X028500Y007235D01*
X027700Y007235D01*
X027600Y007135D01*
X027600Y006335D01*
X027700Y006235D01*
X027600Y006135D01*
X027600Y005335D01*
D12*
X031383Y010038D02*
X031406Y010015D01*
X031432Y009995D01*
X031460Y009978D01*
X031489Y009964D01*
X031520Y009953D01*
X031551Y009946D01*
X031584Y009942D01*
X031616Y009942D01*
X031649Y009946D01*
X031680Y009953D01*
X031711Y009964D01*
X031740Y009978D01*
X031768Y009995D01*
X031794Y010015D01*
X031817Y010038D01*
X031817Y010432D02*
X031794Y010455D01*
X031768Y010475D01*
X031740Y010492D01*
X031711Y010506D01*
X031680Y010517D01*
X031649Y010524D01*
X031616Y010528D01*
X031584Y010528D01*
X031551Y010524D01*
X031520Y010517D01*
X031489Y010506D01*
X031460Y010492D01*
X031432Y010475D01*
X031406Y010455D01*
X031383Y010432D01*
X031383Y011038D02*
X031406Y011015D01*
X031432Y010995D01*
X031460Y010978D01*
X031489Y010964D01*
X031520Y010953D01*
X031551Y010946D01*
X031584Y010942D01*
X031616Y010942D01*
X031649Y010946D01*
X031680Y010953D01*
X031711Y010964D01*
X031740Y010978D01*
X031768Y010995D01*
X031794Y011015D01*
X031817Y011038D01*
X031817Y011432D02*
X031794Y011455D01*
X031768Y011475D01*
X031740Y011492D01*
X031711Y011506D01*
X031680Y011517D01*
X031649Y011524D01*
X031616Y011528D01*
X031584Y011528D01*
X031551Y011524D01*
X031520Y011517D01*
X031489Y011506D01*
X031460Y011492D01*
X031432Y011475D01*
X031406Y011455D01*
X031383Y011432D01*
X031383Y012038D02*
X031406Y012015D01*
X031432Y011995D01*
X031460Y011978D01*
X031489Y011964D01*
X031520Y011953D01*
X031551Y011946D01*
X031584Y011942D01*
X031616Y011942D01*
X031649Y011946D01*
X031680Y011953D01*
X031711Y011964D01*
X031740Y011978D01*
X031768Y011995D01*
X031794Y012015D01*
X031817Y012038D01*
X031817Y012432D02*
X031794Y012455D01*
X031768Y012475D01*
X031740Y012492D01*
X031711Y012506D01*
X031680Y012517D01*
X031649Y012524D01*
X031616Y012528D01*
X031584Y012528D01*
X031551Y012524D01*
X031520Y012517D01*
X031489Y012506D01*
X031460Y012492D01*
X031432Y012475D01*
X031406Y012455D01*
X031383Y012432D01*
X018348Y007215D02*
X018041Y007215D01*
X018041Y006755D01*
X018041Y006985D02*
X018194Y006985D01*
X017887Y007215D02*
X017580Y007215D01*
X017580Y006755D01*
X017427Y006832D02*
X017427Y007139D01*
X017350Y007215D01*
X017197Y007215D01*
X017120Y007139D01*
X017120Y006832D01*
X017197Y006755D01*
X017350Y006755D01*
X017427Y006832D01*
X017580Y006985D02*
X017734Y006985D01*
X017536Y007255D02*
X017536Y007715D01*
X017689Y007715D02*
X017382Y007715D01*
X017229Y007715D02*
X017229Y007332D01*
X017152Y007255D01*
X016999Y007255D01*
X016922Y007332D01*
X016922Y007715D01*
X016768Y007639D02*
X016692Y007715D01*
X016538Y007715D01*
X016462Y007639D01*
X016462Y007332D01*
X016538Y007255D01*
X016692Y007255D01*
X016768Y007332D01*
X016768Y007639D01*
X015848Y007639D02*
X015771Y007715D01*
X015618Y007715D01*
X015541Y007639D01*
X015541Y007332D01*
X015618Y007255D01*
X015771Y007255D01*
X015848Y007332D01*
X015387Y007332D02*
X015311Y007255D01*
X015080Y007255D01*
X015080Y007715D01*
X015311Y007715D01*
X015387Y007639D01*
X015387Y007562D01*
X015311Y007485D01*
X015080Y007485D01*
X014927Y007409D02*
X014850Y007485D01*
X014697Y007485D01*
X014620Y007562D01*
X014620Y007639D01*
X014697Y007715D01*
X014850Y007715D01*
X014927Y007639D01*
X014927Y007409D02*
X014927Y007332D01*
X014850Y007255D01*
X014697Y007255D01*
X014620Y007332D01*
X014580Y007215D02*
X014887Y006755D01*
X014887Y007215D01*
X014580Y007215D02*
X014580Y006755D01*
X014427Y006832D02*
X014427Y007139D01*
X014350Y007215D01*
X014197Y007215D01*
X014120Y007139D01*
X014120Y006832D01*
X014197Y006755D01*
X014350Y006755D01*
X014427Y006832D01*
X015387Y007332D02*
X015387Y007409D01*
X015311Y007485D01*
X012317Y008538D02*
X012294Y008515D01*
X012268Y008495D01*
X012240Y008478D01*
X012211Y008464D01*
X012180Y008453D01*
X012149Y008446D01*
X012116Y008442D01*
X012084Y008442D01*
X012051Y008446D01*
X012020Y008453D01*
X011989Y008464D01*
X011960Y008478D01*
X011932Y008495D01*
X011906Y008515D01*
X011883Y008538D01*
X011883Y008932D02*
X011906Y008955D01*
X011932Y008975D01*
X011960Y008992D01*
X011989Y009006D01*
X012020Y009017D01*
X012051Y009024D01*
X012084Y009028D01*
X012116Y009028D01*
X012149Y009024D01*
X012180Y009017D01*
X012211Y009006D01*
X012240Y008992D01*
X012268Y008975D01*
X012294Y008955D01*
X012317Y008932D01*
X009317Y011432D02*
X009294Y011455D01*
X009268Y011475D01*
X009240Y011492D01*
X009211Y011506D01*
X009180Y011517D01*
X009149Y011524D01*
X009116Y011528D01*
X009084Y011528D01*
X009051Y011524D01*
X009020Y011517D01*
X008989Y011506D01*
X008960Y011492D01*
X008932Y011475D01*
X008906Y011455D01*
X008883Y011432D01*
X008883Y011038D02*
X008906Y011015D01*
X008932Y010995D01*
X008960Y010978D01*
X008989Y010964D01*
X009020Y010953D01*
X009051Y010946D01*
X009084Y010942D01*
X009116Y010942D01*
X009149Y010946D01*
X009180Y010953D01*
X009211Y010964D01*
X009240Y010978D01*
X009268Y010995D01*
X009294Y011015D01*
X009317Y011038D01*
D13*
X002222Y008060D02*
X001995Y008060D01*
X002108Y008060D02*
X002108Y008400D01*
X001995Y008287D01*
X000700Y009500D02*
X000700Y009800D01*
X000925Y009725D02*
X000475Y009725D01*
X000700Y009500D01*
X000850Y010500D02*
X000925Y010575D01*
X000925Y010725D01*
X000850Y010800D01*
X000775Y010800D01*
X000700Y010725D01*
X000700Y010650D01*
X000700Y010725D02*
X000625Y010800D01*
X000550Y010800D01*
X000475Y010725D01*
X000475Y010575D01*
X000550Y010500D01*
X000550Y011500D02*
X000475Y011575D01*
X000475Y011725D01*
X000550Y011800D01*
X000625Y011800D01*
X000925Y011500D01*
X000925Y011800D01*
X000925Y012500D02*
X000925Y012800D01*
X000925Y012650D02*
X000475Y012650D01*
X000625Y012500D01*
X000700Y014000D02*
X000700Y014300D01*
X000925Y014225D02*
X000475Y014225D01*
X000700Y014000D01*
X000850Y015000D02*
X000925Y015075D01*
X000925Y015225D01*
X000850Y015300D01*
X000775Y015300D01*
X000700Y015225D01*
X000700Y015150D01*
X000700Y015225D02*
X000625Y015300D01*
X000550Y015300D01*
X000475Y015225D01*
X000475Y015075D01*
X000550Y015000D01*
X000550Y016000D02*
X000475Y016075D01*
X000475Y016225D01*
X000550Y016300D01*
X000625Y016300D01*
X000925Y016000D01*
X000925Y016300D01*
X000925Y017000D02*
X000925Y017300D01*
X000925Y017150D02*
X000475Y017150D01*
X000625Y017000D01*
X023925Y015410D02*
X024075Y015560D01*
X024075Y015110D01*
X023925Y015110D02*
X024225Y015110D01*
X026799Y014831D02*
X030401Y014831D01*
X030401Y008640D01*
X026799Y008640D01*
X026799Y014831D01*
X027925Y017910D02*
X028225Y017910D01*
X028075Y017910D02*
X028075Y018360D01*
X027925Y018210D01*
X028385Y018285D02*
X028385Y017985D01*
X028686Y018285D01*
X028686Y017985D01*
X028611Y017910D01*
X028460Y017910D01*
X028385Y017985D01*
X028385Y018285D02*
X028460Y018360D01*
X028611Y018360D01*
X028686Y018285D01*
D14*
X031600Y012235D03*
X031600Y011235D03*
X031600Y010235D03*
X012100Y008735D03*
X009100Y011235D03*
D15*
X009307Y011009D03*
X011893Y008961D03*
X031807Y010009D03*
X031807Y011009D03*
X031807Y012009D03*
D16*
X015730Y015235D02*
X015470Y015235D01*
X014280Y015235D02*
X013920Y015235D01*
X013920Y016235D02*
X014280Y016235D01*
X015470Y016235D02*
X015730Y016235D01*
X015730Y017235D02*
X015470Y017235D01*
X014280Y017235D02*
X013920Y017235D01*
X008730Y009235D02*
X008470Y009235D01*
X007280Y009235D02*
X006920Y009235D01*
X006920Y008235D02*
X007280Y008235D01*
X008470Y008235D02*
X008730Y008235D01*
X008730Y007235D02*
X008470Y007235D01*
X007280Y007235D02*
X006920Y007235D01*
X006920Y006235D02*
X007280Y006235D01*
X008470Y006235D02*
X008730Y006235D01*
D17*
X011100Y006735D02*
X011100Y004985D01*
X013100Y004985D01*
X013100Y006735D01*
X011100Y006735D01*
X011100Y007485D01*
X013100Y007485D01*
X013100Y006735D01*
X018600Y007485D02*
X018600Y008235D01*
X020600Y008235D01*
X020600Y007485D01*
X018600Y007485D01*
X018600Y008235D02*
X018600Y009985D01*
X020600Y009985D01*
X020600Y008235D01*
X024600Y007485D02*
X024600Y006735D01*
X026600Y006735D01*
X026600Y004985D01*
X024600Y004985D01*
X024600Y006735D01*
X024600Y007485D02*
X026600Y007485D01*
X026600Y006735D01*
X023100Y014985D02*
X021100Y014985D01*
X021100Y016735D01*
X023100Y016735D01*
X023100Y014985D01*
X023100Y016735D02*
X023100Y017485D01*
X021100Y017485D01*
X021100Y016735D01*
X012600Y017485D02*
X012600Y015735D01*
X010600Y015735D01*
X010600Y017485D01*
X012600Y017485D01*
X012600Y015735D02*
X012600Y014985D01*
X010600Y014985D01*
X010600Y015735D01*
X009600Y015735D02*
X009600Y014985D01*
X007600Y014985D01*
X007600Y015735D01*
X009600Y015735D01*
X009600Y017485D01*
X007600Y017485D01*
X007600Y015735D01*
X007100Y015735D02*
X005100Y015735D01*
X005100Y017485D01*
X007100Y017485D01*
X007100Y015735D01*
X007100Y014985D01*
X005100Y014985D01*
X005100Y015735D01*
D18*
X013811Y006591D02*
X013811Y004879D01*
X018389Y004879D01*
X018389Y006591D01*
X013811Y006591D01*
X033244Y008946D02*
X033244Y013524D01*
X034956Y013524D01*
X034956Y008946D01*
X033244Y008946D01*
M02*
