G75*
%MOIN*%
%OFA0B0*%
%FSLAX24Y24*%
%IPPOS*%
%LPD*%
%AMOC8*
5,1,8,0,0,1.08239X$1,22.5*
%
%ADD10OC8,0.0640*%
%ADD11C,0.0600*%
%ADD12OC8,0.0750*%
%ADD13OC8,0.0600*%
%ADD14C,0.0634*%
%ADD15C,0.0340*%
%ADD16C,0.0740*%
%ADD17C,0.0476*%
%ADD18C,0.0712*%
%ADD19C,0.0100*%
%ADD20R,0.0436X0.0436*%
%ADD21C,0.0080*%
%ADD22C,0.0400*%
D10*
X019600Y005735D03*
X020600Y005735D03*
X021600Y005735D03*
X022600Y005735D03*
X023600Y005735D03*
X023600Y006735D03*
X022600Y006735D03*
X021600Y006735D03*
X020600Y006735D03*
X019600Y006735D03*
X024100Y016235D03*
X025100Y016235D03*
X026100Y016235D03*
X027100Y016235D03*
X028100Y016235D03*
X028100Y017235D03*
X027100Y017235D03*
X026100Y017235D03*
X025100Y017235D03*
X024100Y017235D03*
D11*
X020400Y016735D02*
X019800Y016735D01*
X019800Y015735D02*
X020400Y015735D01*
X012600Y011035D02*
X012600Y010435D01*
X011600Y010435D02*
X011600Y011035D01*
X001900Y008235D02*
X001300Y008235D01*
X001300Y007235D02*
X001900Y007235D01*
X027800Y006735D02*
X028400Y006735D01*
X028400Y005735D02*
X027800Y005735D01*
D12*
X016350Y015235D03*
X014850Y015235D03*
X013350Y015235D03*
X013350Y016235D03*
X014850Y016235D03*
X016350Y016235D03*
X016350Y017235D03*
X014850Y017235D03*
X013350Y017235D03*
X009350Y009235D03*
X009350Y008235D03*
X009350Y007235D03*
X009350Y006235D03*
X007850Y006235D03*
X007850Y007235D03*
X006350Y007235D03*
X006350Y006235D03*
X006350Y008235D03*
X007850Y008235D03*
X007850Y009235D03*
X006350Y009235D03*
D13*
X002600Y009735D03*
X001600Y009735D03*
X001600Y010735D03*
X002600Y010735D03*
X002600Y011735D03*
X001600Y011735D03*
X001600Y012735D03*
X002600Y012735D03*
X002600Y014235D03*
X001600Y014235D03*
X001600Y015235D03*
X002600Y015235D03*
X002600Y016235D03*
X001600Y016235D03*
X001600Y017235D03*
X002600Y017235D03*
D14*
X005600Y016552D02*
X005600Y015918D01*
X006600Y015918D02*
X006600Y016552D01*
X008100Y016552D02*
X008100Y015918D01*
X009100Y015918D02*
X009100Y016552D01*
X011100Y016552D02*
X011100Y015918D01*
X012100Y015918D02*
X012100Y016552D01*
X021600Y016552D02*
X021600Y015918D01*
X022600Y015918D02*
X022600Y016552D01*
X020100Y009052D02*
X020100Y008418D01*
X019100Y008418D02*
X019100Y009052D01*
X025100Y006552D02*
X025100Y005918D01*
X026100Y005918D02*
X026100Y006552D01*
X012600Y006552D02*
X012600Y005918D01*
X011600Y005918D02*
X011600Y006552D01*
D15*
X006260Y012575D03*
X005940Y012575D03*
X005940Y012895D03*
X006260Y012895D03*
D16*
X015100Y005735D03*
X016100Y005735D03*
X017100Y005735D03*
X034100Y010235D03*
X034100Y011235D03*
X034100Y012235D03*
D17*
X003112Y005430D03*
X002600Y005430D03*
X002088Y005430D03*
X002344Y006040D03*
X002856Y006040D03*
D18*
X004214Y005735D03*
X000986Y005735D03*
D19*
X005100Y006235D02*
X006100Y005235D01*
X008100Y005235D01*
X009100Y006235D01*
X009350Y006235D01*
X010100Y006235D01*
X011100Y005235D01*
X012100Y005235D01*
X012600Y005735D01*
X012600Y006235D01*
X012600Y007235D01*
X011600Y006235D02*
X011100Y006735D01*
X010600Y007235D01*
X010600Y010735D01*
X010100Y011235D02*
X011100Y011235D01*
X011600Y011735D01*
X010600Y012735D01*
X010600Y014735D01*
X012600Y014235D02*
X014600Y012235D01*
X014600Y011235D01*
X015100Y010735D01*
X015600Y010735D01*
X014100Y011235D02*
X012600Y012735D01*
X010600Y012235D02*
X010600Y011735D01*
X010100Y011235D02*
X009600Y011735D01*
X009600Y012235D01*
X009100Y012735D02*
X010100Y012735D01*
X010600Y012235D01*
X009600Y011735D02*
X009600Y009485D01*
X009350Y009235D01*
X008100Y009735D02*
X007850Y009485D01*
X007850Y009235D01*
X008100Y009735D02*
X008100Y014235D01*
X006600Y014235D01*
X007100Y014735D02*
X002100Y014735D01*
X001600Y014235D01*
X002600Y012735D02*
X003600Y013735D01*
X005100Y013735D01*
X005100Y014235D01*
X007600Y013735D02*
X007600Y012235D01*
X007100Y011735D01*
X007100Y011235D01*
X005600Y009735D01*
X005600Y008735D01*
X005100Y008235D01*
X005100Y006735D01*
X002100Y006735D01*
X001600Y006235D01*
X001600Y005735D01*
X001905Y005430D01*
X002088Y005430D01*
X003112Y005430D02*
X003600Y005918D01*
X003600Y006235D01*
X005100Y006235D01*
X005600Y006235D02*
X005600Y007735D01*
X007100Y006735D02*
X007100Y010235D01*
X007600Y010735D01*
X007600Y011235D01*
X008600Y012235D02*
X009100Y012735D01*
X012600Y014235D02*
X012600Y015735D01*
X014350Y015735D02*
X014850Y015235D01*
X015600Y014735D02*
X015100Y014235D01*
X013600Y014235D01*
X015100Y014235D02*
X015100Y013235D01*
X015600Y013235D01*
X017100Y014735D01*
X017100Y015235D01*
X018100Y015235D02*
X018100Y016235D01*
X018600Y016735D01*
X019100Y016235D02*
X019600Y016735D01*
X020100Y016735D01*
X019100Y016235D02*
X019100Y014735D01*
X017600Y013235D01*
X017600Y014235D02*
X016100Y012735D01*
X016100Y005735D01*
X017100Y005735D02*
X018100Y006735D01*
X019600Y006735D01*
X019100Y007235D01*
X019100Y008735D01*
X019600Y009235D01*
X019600Y011235D01*
X020600Y010235D01*
X025600Y010235D01*
X028600Y010235D01*
X028600Y008235D01*
X029600Y007735D02*
X021600Y007735D01*
X021100Y007235D01*
X020100Y006235D02*
X020600Y005735D01*
X020100Y006235D02*
X020100Y008735D01*
X017100Y009235D02*
X017100Y011735D01*
X017600Y011235D01*
X019600Y011235D01*
X020100Y011735D02*
X020100Y012735D01*
X020600Y013235D01*
X020600Y014235D01*
X022600Y014235D01*
X024600Y012235D01*
X026600Y011235D02*
X026600Y014735D01*
X027600Y015735D01*
X028100Y016235D01*
X027600Y015735D02*
X026600Y015735D01*
X026100Y016235D01*
X025600Y016735D02*
X026600Y016735D01*
X027100Y017235D01*
X026600Y017735D02*
X027600Y017735D01*
X028100Y017235D01*
X026600Y017735D02*
X026100Y017235D01*
X025600Y017735D01*
X021600Y017735D01*
X021100Y017235D01*
X021100Y015235D01*
X020600Y015235D01*
X019100Y013735D01*
X020600Y014235D02*
X022600Y016235D01*
X023100Y015235D02*
X024100Y015235D01*
X024600Y015735D01*
X024600Y016735D01*
X025100Y017235D01*
X025600Y016735D01*
X023100Y015235D02*
X022600Y014735D01*
X017600Y014235D02*
X017600Y016235D01*
X016350Y017235D02*
X016100Y017235D01*
X015600Y016735D01*
X015600Y014735D01*
X014100Y011235D02*
X014100Y008735D01*
X014600Y008235D01*
X022600Y006735D02*
X023100Y006235D01*
X024100Y006235D01*
X024100Y006735D01*
X024600Y007235D01*
X029100Y007235D01*
X029100Y006735D01*
X029600Y006235D02*
X026100Y006235D01*
X028100Y005735D02*
X030100Y005735D01*
X033100Y008735D01*
X033100Y017735D01*
X028100Y012235D02*
X028100Y011735D01*
X028600Y011235D01*
X030100Y011235D01*
X030100Y006735D01*
X029600Y006235D01*
X029600Y007735D02*
X029600Y010735D01*
X026100Y009735D02*
X025600Y009735D01*
X025100Y009235D01*
X024100Y009235D02*
X023600Y009735D01*
X023100Y009735D01*
X005100Y009735D02*
X003600Y009735D01*
X002600Y008735D01*
X002600Y007735D01*
X002100Y007235D01*
X001600Y007235D01*
D20*
X005600Y007735D03*
X005100Y009735D03*
X007600Y011235D03*
X008600Y012235D03*
X009600Y012235D03*
X010600Y011735D03*
X010600Y010735D03*
X014600Y008235D03*
X017100Y009235D03*
X015600Y010735D03*
X017100Y011735D03*
X017600Y013235D03*
X019100Y013735D03*
X018100Y015235D03*
X017100Y015235D03*
X017600Y016235D03*
X018600Y016735D03*
X022600Y014735D03*
X024600Y012235D03*
X025600Y010235D03*
X026100Y009735D03*
X025100Y009235D03*
X024100Y009235D03*
X023100Y009735D03*
X020100Y011735D03*
X019600Y011235D03*
X015100Y013235D03*
X013600Y014235D03*
X010600Y014735D03*
X007600Y013735D03*
X006600Y014235D03*
X007100Y014735D03*
X005100Y014235D03*
X028100Y012235D03*
X028600Y010235D03*
X028600Y008235D03*
X029100Y006735D03*
X033100Y017735D03*
D21*
X028600Y017985D02*
X028600Y015985D01*
X028100Y015485D01*
X027600Y015485D01*
X027600Y011985D01*
X028600Y010985D01*
X029850Y010985D01*
X029850Y007735D01*
X029600Y007485D01*
X024350Y007485D01*
X023600Y006735D01*
X021100Y007235D02*
X020600Y006735D01*
X019600Y005735D02*
X020100Y005235D01*
X030100Y005235D01*
X030600Y005735D01*
X027100Y008735D02*
X028100Y009735D01*
X027100Y008735D02*
X024600Y008735D01*
X024600Y009485D01*
X024350Y009735D01*
X024100Y009735D01*
X023100Y010735D02*
X023600Y011235D01*
X025600Y011235D01*
X026100Y011235D02*
X026100Y012735D01*
X025100Y011735D02*
X025100Y016235D01*
X028600Y017985D02*
X010850Y017985D01*
X009100Y016235D01*
X012600Y015735D02*
X014350Y015735D01*
X013100Y013235D02*
X012600Y012735D01*
X011600Y011735D01*
X011100Y006735D02*
X007100Y006735D01*
X007850Y006235D02*
X007350Y005735D01*
X006100Y005735D01*
X005600Y006235D01*
X022600Y010735D02*
X023600Y011735D01*
X025100Y011735D01*
X026100Y011235D02*
X026600Y010735D01*
X029600Y010735D01*
D22*
X028100Y009735D03*
X026600Y011235D03*
X025600Y011235D03*
X026100Y012735D03*
X023100Y010735D03*
X022600Y010735D03*
X024100Y009735D03*
X030600Y005735D03*
X013100Y013235D03*
M02*
