G75*
%MOIN*%
%OFA0B0*%
%FSLAX24Y24*%
%IPPOS*%
%LPD*%
%AMOC8*
5,1,8,0,0,1.08239X$1,22.5*
%
%ADD10OC8,0.0720*%
%ADD11C,0.0680*%
%ADD12OC8,0.0830*%
%ADD13OC8,0.0680*%
%ADD14C,0.0714*%
%ADD15C,0.0420*%
%ADD16C,0.0820*%
%ADD17C,0.0556*%
%ADD18C,0.0792*%
D10*
X019600Y005735D03*
X020600Y005735D03*
X021600Y005735D03*
X022600Y005735D03*
X023600Y005735D03*
X023600Y006735D03*
X022600Y006735D03*
X021600Y006735D03*
X020600Y006735D03*
X019600Y006735D03*
X024100Y016235D03*
X025100Y016235D03*
X026100Y016235D03*
X027100Y016235D03*
X028100Y016235D03*
X028100Y017235D03*
X027100Y017235D03*
X026100Y017235D03*
X025100Y017235D03*
X024100Y017235D03*
D11*
X020400Y016735D02*
X019800Y016735D01*
X019800Y015735D02*
X020400Y015735D01*
X012600Y011035D02*
X012600Y010435D01*
X011600Y010435D02*
X011600Y011035D01*
X001900Y008235D02*
X001300Y008235D01*
X001300Y007235D02*
X001900Y007235D01*
X027800Y006735D02*
X028400Y006735D01*
X028400Y005735D02*
X027800Y005735D01*
D12*
X016350Y015235D03*
X014850Y015235D03*
X013350Y015235D03*
X013350Y016235D03*
X014850Y016235D03*
X016350Y016235D03*
X016350Y017235D03*
X014850Y017235D03*
X013350Y017235D03*
X009350Y009235D03*
X009350Y008235D03*
X009350Y007235D03*
X009350Y006235D03*
X007850Y006235D03*
X007850Y007235D03*
X006350Y007235D03*
X006350Y006235D03*
X006350Y008235D03*
X007850Y008235D03*
X007850Y009235D03*
X006350Y009235D03*
D13*
X002600Y009735D03*
X001600Y009735D03*
X001600Y010735D03*
X002600Y010735D03*
X002600Y011735D03*
X001600Y011735D03*
X001600Y012735D03*
X002600Y012735D03*
X002600Y014235D03*
X001600Y014235D03*
X001600Y015235D03*
X002600Y015235D03*
X002600Y016235D03*
X001600Y016235D03*
X001600Y017235D03*
X002600Y017235D03*
D14*
X005600Y016552D02*
X005600Y015918D01*
X006600Y015918D02*
X006600Y016552D01*
X008100Y016552D02*
X008100Y015918D01*
X009100Y015918D02*
X009100Y016552D01*
X011100Y016552D02*
X011100Y015918D01*
X012100Y015918D02*
X012100Y016552D01*
X021600Y016552D02*
X021600Y015918D01*
X022600Y015918D02*
X022600Y016552D01*
X020100Y009052D02*
X020100Y008418D01*
X019100Y008418D02*
X019100Y009052D01*
X025100Y006552D02*
X025100Y005918D01*
X026100Y005918D02*
X026100Y006552D01*
X012600Y006552D02*
X012600Y005918D01*
X011600Y005918D02*
X011600Y006552D01*
D15*
X006260Y012575D03*
X005940Y012575D03*
X005940Y012895D03*
X006260Y012895D03*
D16*
X015100Y005735D03*
X016100Y005735D03*
X017100Y005735D03*
X034100Y010235D03*
X034100Y011235D03*
X034100Y012235D03*
D17*
X002088Y005430D03*
X002600Y005430D03*
X003112Y005430D03*
X002856Y006040D03*
X002344Y006040D03*
D18*
X000986Y005735D03*
X004214Y005735D03*
M02*
