%
M48
M72
T01C0.0100
T02C0.0200
T03C0.0236
T04C0.0320
T05C0.0360
T06C0.0394
T07C0.0400
T08C0.0472
%
T01
X5940Y12575
X6260Y12575
X6260Y12895
X5940Y12895
T02
X13100Y13235
X22600Y10735
X23100Y10735
X24100Y9735
X25600Y11235
X26600Y11235
X26100Y12735
X28100Y9735
X30600Y5735
T03
X2088Y5430
X2600Y5430
X3112Y5430
X2856Y6040
X2344Y6040
X5600Y7735
X5100Y9735
X7600Y11235
X8600Y12235
X9600Y12235
X10600Y11735
X10600Y10735
X14600Y8235
X17100Y9235
X15600Y10735
X17100Y11735
X17600Y13235
X19100Y13735
X18100Y15235
X17100Y15235
X17600Y16235
X18600Y16735
X22600Y14735
X24600Y12235
X25600Y10235
X26100Y9735
X25100Y9235
X24100Y9235
X23100Y9735
X20100Y11735
X19600Y11235
X15100Y13235
X13600Y14235
X10600Y14735
X7600Y13735
X6600Y14235
X7100Y14735
X5100Y14235
X28100Y12235
X28600Y10235
X28600Y8235
X29100Y6735
X33100Y17735
T04
X16350Y17235
X14850Y17235
X13350Y17235
X13350Y16235
X14850Y16235
X16350Y16235
X16350Y15235
X14850Y15235
X13350Y15235
X9350Y9235
X9350Y8235
X9350Y7235
X9350Y6235
X7850Y6235
X7850Y7235
X6350Y7235
X6350Y6235
X6350Y8235
X7850Y8235
X7850Y9235
X6350Y9235
T05
X2600Y9735
X1600Y9735
X1600Y10735
X2600Y10735
X2600Y11735
X1600Y11735
X1600Y12735
X2600Y12735
X2600Y14235
X1600Y14235
X1600Y15235
X2600Y15235
X2600Y16235
X1600Y16235
X1600Y17235
X2600Y17235
X11600Y10735
X12600Y10735
X20100Y15735
X20100Y16735
X28100Y6735
X28100Y5735
X1600Y7235
X1600Y8235
T06
X11600Y6235
X12600Y6235
X19100Y8735
X20100Y8735
X25100Y6235
X26100Y6235
X22600Y16235
X21600Y16235
X12100Y16235
X11100Y16235
X9100Y16235
X8100Y16235
X6600Y16235
X5600Y16235
T07
X19600Y6735
X20600Y6735
X21600Y6735
X22600Y6735
X23600Y6735
X23600Y5735
X22600Y5735
X21600Y5735
X20600Y5735
X19600Y5735
X17100Y5735
X16100Y5735
X15100Y5735
X24100Y16235
X25100Y16235
X26100Y16235
X27100Y16235
X28100Y16235
X28100Y17235
X27100Y17235
X26100Y17235
X25100Y17235
X24100Y17235
X34100Y12235
X34100Y11235
X34100Y10235
T08
X4214Y5735
X986Y5735
M30
