%
M48
M72
T01C0.0100
T02C0.0236
T03C0.0335
T04C0.0360
T05C0.0400
%
T01
X6070Y6960
X6390Y6960
X6390Y7280
X6070Y7280
T02
X9355Y5870
X10105Y6620
X8730Y7620
X8605Y8120
X7230Y7870
X7480Y9370
X4980Y7620
X4980Y7120
X6855Y6245
X8105Y6245
X10980Y8120
X12355Y8120
X13480Y7870
X13855Y8245
X13105Y7245
X13105Y6120
X11230Y4995
X15355Y7495
X15980Y7495
X16605Y7495
X13730Y10245
X12980Y10370
X10605Y9495
X16605Y4120
T03
X3346Y6122
X3346Y7618
T04
X2980Y9245
X2980Y10245
T05
X9980Y7370
X10980Y7370
X11980Y7370
X18355Y7370
X19355Y7370
X19355Y8370
X18355Y8370
X18355Y6370
X19355Y6370
X19355Y5370
X18355Y5370
X18355Y4370
X19355Y4370
M30
